<svg height="135" viewBox="0 0 114 135" width="114" xmlns="http://www.w3.org/2000/svg" xmlns:xlink="http://www.w3.org/1999/xlink"><defs><linearGradient id="a"><stop offset="0" stop-color="#592d89"/><stop offset="1" stop-color="#a8228e" stop-opacity="0"/></linearGradient><radialGradient id="b" cx="50%" cy="102.977698%" gradientTransform="matrix(0 .882191 -1 0 1.529777 .588681)" r="35.527554%" xlink:href="#a"/><radialGradient id="c" cx="50%" cy="-13.729411%" gradientTransform="matrix(0 .882191 -1 0 .362706 -.57839)" r="63.340287%" xlink:href="#a"/><path id="d" d="m57.31054 127.554129s13.09987-.156609 19.4174-1.670439c2.4646-.59058 5.35929-2.1287 7.0478-2.85235l4.48262 5.47296c10.88033-6.07863 16.7438-19.41032 21.16831-31.16242 2.93325-7.79112 3.1392-16.46015 3.0755-24.7849-.055-7.191688-.37169-11.51918-2.98436-21.36831-2.19919-6.38091-3.29224-16.028758-2.45656-24.040528.75242-7.21354 6.6311-20.72294 6.6311-20.72294.37446-2.732009-1.17898-3.549465-2.74219-3.717237-1.5632-.167772-17.95673 4.002403-27.0456 3.635337-9.06489-.366098-14.01259-5.717834-26.59402-5.789173-12.581438.07134-17.529127 5.423077-26.594017 5.789175-9.08887.367067-25.482405-3.803109-27.045609-3.635337s-3.116643.985228-2.742183 3.71724c0 0 5.878676 13.5094 6.631096 20.72294.835681 8.011772-.257369 17.659615-2.456561 24.040527-2.612666 9.849134-2.929309 14.176618-2.984357 21.368306-.06372 8.32475.142244 16.99378 3.075499 24.7849 4.424512 11.7521 10.287978 25.08379 21.168309 31.16242l4.482624-5.47296c1.688509.72365 4.583201 2.26177 7.047803 2.85235 6.317527 1.51383 19.417396 1.670439 19.417396 1.670439z"/><linearGradient id="e"><stop offset="0" stop-color="#592d89" stop-opacity="0"/><stop offset="1" stop-color="#592d89"/></linearGradient><linearGradient id="f" x1="44.594439%" x2="42.766501%" xlink:href="#e" y1="3.441803%" y2="42.892544%"/><linearGradient id="g" x1="44.59444%" x2="42.766503%" xlink:href="#e" y1="3.441803%" y2="42.892544%"/></defs><g fill="none" fill-rule="evenodd"><use fill="#a8228e" xlink:href="#d"/><use fill="url(#b)" xlink:href="#d"/><use fill="url(#c)" xlink:href="#d"/><path d="m106.689943 6.425207s5.277071 13.7709233 6.029491 21.1241075c.835681 8.1668688-.257369 18.0014807-2.456561 24.5059183-2.612666 10.0397996-2.929309 14.4510577-2.984357 21.7819669-.06372 8.4859056 2.507663 20.0311114 5.440918 27.9730563" stroke="#592d89" transform="matrix(-1 0 0 1 219.689942 0)"/><path d="m1.69110243 6.425207s4.688498 13.7709233 5.440918 21.1241075c.835681 8.1668688-.257369 18.0014807-2.456561 24.5059183-2.612666 10.0397996-2.929309 14.4510577-2.984357 21.7819669-.06372 8.4859056 2.507663 18.646062 5.440918 26.5880073" stroke="#592d89"/><g fill="#592d89"><ellipse cx="47.5" cy="129.5" rx="8.5" ry="5.5"/><ellipse cx="66.5" cy="129.5" rx="8.5" ry="5.5"/></g><g transform="translate(2 65)"><path d="m.118909 7.55698c-.06372 8.32475.142244 16.99378 3.075499 24.7849 4.424512 11.7521 10.287978 25.08379 21.168309 31.16242 0 0 3.696415-3.24975 4.482624-5.47296 3.479911-9.84036 3.952343-18.5593-.201252-31.312-1.644632-5.04948-3.094645-7.7857-7.618461-13.19588-9.059255-10.24225-20.338747-19.256435-20.906719-5.96648z" fill="url(#f)"/><path d="m110.50217 7.55698c.0637 8.32475-.14225 16.99378-3.0755 24.7849-4.42451 11.7521-10.28798 25.08379-21.16831 31.16242 0 0-3.69642-3.24975-4.48262-5.47296-3.47991-9.84036-3.95235-18.5593.20125-31.312 1.64463-5.04948 3.09464-7.7857 7.61846-13.19588 9.05925-10.24225 20.33875-19.256439 20.90672-5.96648z" fill="url(#g)"/></g><ellipse cx="82.23985" cy="49.679459" fill="#ed168f" rx="14.271626" ry="14.271625"/><ellipse cx="82.55627" cy="49.487663" fill="#592d89" rx="8.136822" ry="8.13682"/><ellipse cx="31.987038" cy="49.277794" fill="#ed168f" rx="14.271626" ry="14.271625"/><g fill="#592d89"><ellipse cx="32.303459" cy="49.085999" rx="8.136822" ry="8.13682"/><ellipse cx="56.755085" cy="69.46701" rx="11.755085" ry="15.46701"/><g transform="translate(0 2)"><path d="m53.748504 40.374721c-5.577854-14.931977-17.108575-22.743345-20.955958-24.382995-5.576555-2.376575-6.28607-2.57819-13.202732-5.540091-5.606974-2.401057-8.717591-6.095062-15.9189-9.743668-1.563204.167772-3.116643.985228-2.742183 3.71724 0 0 8.453225 7.517993 16.361835 10.376751 6.123586 2.213518 12.488173 4.194044 17.90807 7.80274 7.12733 4.745546 11.180272 6.889889 18.549868 17.770023z"/><path d="m60.87258 40.374716c5.57785-14.931977 17.10857-22.743345 20.95596-24.382995 5.57655-2.376575 6.28607-2.57819 13.20273-5.540091 5.60697-2.401057 8.71759-6.095062 15.9189-9.743668 1.5632.167772 3.11664.985228 2.74218 3.71724 0 0-8.45322 7.517993-16.36183 10.376751-6.12359 2.213518-12.48818 4.194044-17.90807 7.80274-7.12733 4.745546-11.18028 6.889889-18.54987 17.770023z"/></g></g></g></svg>