<?xml version="1.0" encoding="UTF-8"?>
<svg width="299px" height="119px" viewBox="0 0 299 119" version="1.1" xmlns="http://www.w3.org/2000/svg" xmlns:xlink="http://www.w3.org/1999/xlink">
    <!-- Generator: Sketch 57.1 (83088) - https://sketch.com -->
    <title>logo</title>
    <desc>Created with Sketch.</desc>
    <defs>
        <radialGradient cx="50%" cy="102.977698%" fx="50%" fy="102.977698%" r="36.4198741%" gradientTransform="translate(0.500000,1.029777),scale(1.000000,0.860577),rotate(90.000000),translate(-0.500000,-1.029777)" id="radialGradient-1">
            <stop stop-color="#592D89" offset="0%"></stop>
            <stop stop-color="#A8228E" stop-opacity="0" offset="100%"></stop>
        </radialGradient>
        <radialGradient cx="50%" cy="-13.7294111%" fx="50%" fy="-13.7294111%" r="64.9311594%" gradientTransform="translate(0.500000,-0.137294),scale(1.000000,0.860577),rotate(90.000000),translate(-0.500000,0.137294)" id="radialGradient-2">
            <stop stop-color="#592D89" offset="0%"></stop>
            <stop stop-color="#A8228E" stop-opacity="0" offset="100%"></stop>
        </radialGradient>
        <path d="M37.7043026,86.0248784 C37.7043026,86.0248784 46.3226382,85.9192577 50.4789079,84.8983026 C52.1003553,84.5000044 54.0047566,83.4626677 55.1156184,82.9746247 L58.0647105,86.6656907 C65.2228224,82.5661495 69.0803684,73.5750098 71.9912303,65.6491749 C73.921,60.3946986 74.0564934,54.5481435 74.0145855,48.9337772 C73.9784013,44.083569 73.7700526,41.1650279 72.0511908,34.5225914 C70.6043553,30.219187 69.8852434,23.7124988 70.4350329,18.309212 C70.9300461,13.4442665 74.7975987,4.33327577 74.7975987,4.33327577 C75.0439539,2.49075807 74.0219539,1.93945053 72.9935263,1.82630198 C71.9651053,1.71315342 61.1798882,4.52559702 55.2003684,4.27804088 C49.236625,4.03113758 45.9815592,0.421827256 37.7043026,0.373714907 C29.4270408,0.42182793 26.1719822,4.03113893 20.2082388,4.27804223 C14.2287191,4.52559905 3.44349868,1.71315477 2.415075,1.82630333 C1.38665132,1.93945188 0.364651974,2.49075942 0.611007237,4.33327914 C0.611007237,4.33327914 4.47855724,13.4442698 4.97357039,18.3092154 C5.52336053,23.7125035 4.80424868,30.2191883 3.35741184,34.5225941 C1.63855263,41.1650333 1.43023487,44.083569 1.39401908,48.9337772 C1.35209803,54.5481435 1.48760066,60.3946986 3.41737368,65.6491749 C6.32823684,73.5750098 10.1857803,82.5661495 17.3438928,86.6656907 L20.2929875,82.9746247 C21.4038487,83.4626677 23.3082513,84.5000044 24.9297,84.8983026 C29.0859678,85.9192577 37.7043026,86.0248784 37.7043026,86.0248784 Z" id="path-3"></path>
        <linearGradient x1="44.8207892%" y1="3.44180253%" x2="43.0693933%" y2="42.8925438%" id="linearGradient-4">
            <stop stop-color="#592D89" stop-opacity="0" offset="0%"></stop>
            <stop stop-color="#592D89" offset="100%"></stop>
        </linearGradient>
        <linearGradient x1="44.8207908%" y1="3.44180253%" x2="43.0693954%" y2="42.8925438%" id="linearGradient-5">
            <stop stop-color="#592D89" stop-opacity="0" offset="0%"></stop>
            <stop stop-color="#592D89" offset="100%"></stop>
        </linearGradient>
    </defs>
    <g id="Page-1" stroke="none" stroke-width="1" fill="none" fill-rule="evenodd">
        <g id="Group" transform="translate(21.000000, 13.000000)">
            <text id="RxJS-Debugger-for-Vi" font-family="HelveticaNeue-Medium, Helvetica Neue" font-size="16" font-weight="400" fill="#000000">
                <tspan x="90" y="60">RxJS Debugger</tspan>
                <tspan x="206.176" y="60" font-family="HelveticaNeue, Helvetica Neue" font-weight="normal"></tspan>
                <tspan x="90" y="79" font-family="HelveticaNeue, Helvetica Neue" font-weight="normal">for Visual Studio Code</tspan>
            </text>
            <g id="logo">
                <g id="Body">
                    <g id="path26-9-0">
                        <use fill="#A8228E" xlink:href="#path-3"></use>
                        <use fill="url(#radialGradient-1)" xlink:href="#path-3"></use>
                        <use fill="url(#radialGradient-2)" xlink:href="#path-3"></use>
                    </g>
                    <path d="M70.1907518,4.33327914 C70.1907518,4.33327914 73.6625089,13.620646 74.1575221,18.5797702 C74.7073122,24.0876585 73.9882004,30.7203037 72.5413635,35.1070175 C70.8225043,41.8780451 70.6141865,44.8530797 70.5779708,49.7971812 C70.5360497,55.5202338 72.227749,63.3065354 74.1575221,68.662731" id="path26-9-0-copy" stroke="#592D89" transform="translate(72.266429, 36.498005) scale(-1, 1) translate(-72.266429, -36.498005) "></path>
                    <path d="M1.11256739,4.33327914 C1.11256739,4.33327914 4.19710555,13.620646 4.69211871,18.5797702 C5.24190884,24.0876585 4.52279699,30.7203037 3.07596015,35.1070175 C1.35710094,41.8780451 1.14878318,44.8530797 1.11256739,49.7971812 C1.07064634,55.5202338 2.76234568,62.3724323 4.69211871,67.728628" id="path26-9-0-copy" stroke="#592D89"></path>
                </g>
                <g id="Feet" transform="translate(26.000000, 83.000000)" fill="#592D89">
                    <ellipse id="Oval" cx="5.43055556" cy="4" rx="5.43055556" ry="4"></ellipse>
                    <ellipse id="Oval" cx="17.5694444" cy="4" rx="5.43055556" ry="4"></ellipse>
                </g>
                <g id="Wings" transform="translate(1.000000, 44.000000)">
                    <path d="M0.0782014144,5.07734594 C0.0362954685,10.6705373 0.17174927,16.4950419 2.10082688,21.7297006 C5.01064108,29.6256428 8.8667944,38.582872 16.0223274,42.6669516 C16.0223274,42.6669516 18.453303,40.4835258 18.9703594,38.9898066 C21.2589495,32.3783147 21.569648,26.5202769 18.8380045,17.9520566 C17.7563996,14.5594372 16.8027875,12.7210394 13.8276653,9.08607469 C7.86977684,2.20456297 0.45173255,-3.85184258 0.0782014144,5.07734594 L0.0782014144,5.07734594 Z" id="path26-9" fill="url(#linearGradient-4)"></path>
                    <path d="M72.6725983,5.07734594 C72.7144911,10.6705373 72.5790465,16.4950419 70.6499722,21.7297006 C67.7401593,29.6256428 63.8840033,38.582872 56.728471,42.6669516 C56.728471,42.6669516 54.2974921,40.4835258 53.7804416,38.9898066 C51.4918522,32.3783147 51.1811484,26.5202769 53.9127952,17.9520566 C54.9943987,14.5594372 55.9480089,12.7210394 58.9231338,9.08607469 C64.8810189,2.20456297 72.2990685,-3.85184527 72.6725983,5.07734594 L72.6725983,5.07734594 Z" id="path26-9-4" fill="url(#linearGradient-5)"></path>
                </g>
                <g id="Eyes" transform="translate(12.000000, 24.000000)">
                    <g id="Right" transform="translate(33.238848, 0.271889)">
                        <ellipse id="path208-8" fill="#ED168F" cx="9.3072186" cy="9.51441667" rx="9.3072186" ry="9.51441667"></ellipse>
                        <ellipse id="path208-1-8" fill="#592D89" cx="9.51357141" cy="9.38655267" rx="5.30641556" ry="5.42454653"></ellipse>
                    </g>
                    <g id="Left" transform="translate(0.466555, 0.004113)">
                        <ellipse id="path208" fill="#ED168F" cx="9.3072186" cy="9.51441667" rx="9.3072186" ry="9.51441667"></ellipse>
                        <ellipse id="path208-1" fill="#592D89" cx="9.51357206" cy="9.38655333" rx="5.30641556" ry="5.42454653"></ellipse>
                    </g>
                </g>
                <g id="Beak" transform="translate(30.000000, 37.000000)" fill="#592D89">
                    <ellipse id="path275" cx="7.83672333" cy="10.4776519" rx="7.83672333" ry="10.4776519"></ellipse>
                </g>
                <g id="Brows" transform="translate(0.000000, 2.000000)" fill="#592D89">
                    <path d="M35.3608579,26.5882309 C31.6912171,16.7549778 24.1052164,11.6109061 21.5740434,10.5311366 C17.9052572,8.96607505 17.4384711,8.8333042 12.8880355,6.88278402 C9.19923684,5.30160015 7.15277829,2.86896271 2.415075,0.466222171 C1.38665132,0.576706171 0.364651974,1.11503085 0.611007237,2.91416071 C0.611007237,2.91416071 6.17233947,7.86503415 11.3753724,9.74763088 C15.4040474,11.2053135 19.5912757,12.5095623 23.1569974,14.8860206 C27.8460303,18.0111363 30.5124395,19.4232646 35.3608579,26.5882309 L35.3608579,26.5882309 Z" id="path278"></path>
                    <path d="M40.04775,26.5882276 C43.7173882,16.7549745 51.3033882,11.6109029 53.8345658,10.5311333 C57.5033487,8.96607176 57.9701382,8.8333009 62.5205724,6.88278073 C66.2093684,5.30159685 68.2558289,2.86895941 72.9935329,0.466218878 C74.0219539,0.576702878 75.0439539,1.11502756 74.7975987,2.91415741 C74.7975987,2.91415741 69.2362697,7.86503085 64.0332368,9.74762759 C60.0045592,11.2053102 55.8173289,12.509559 52.2516118,14.8860173 C47.5625789,18.011133 44.8961645,19.4232613 40.04775,26.5882276 L40.04775,26.5882276 Z" id="path278-5"></path>
                </g>
            </g>
        </g>
    </g>
</svg>