<?xml version="1.0" encoding="UTF-8" standalone="no"?>
<svg
   xmlns:dc="http://purl.org/dc/elements/1.1/"
   xmlns:cc="http://creativecommons.org/ns#"
   xmlns:rdf="http://www.w3.org/1999/02/22-rdf-syntax-ns#"
   xmlns:svg="http://www.w3.org/2000/svg"
   xmlns="http://www.w3.org/2000/svg"
   xmlns:sodipodi="http://sodipodi.sourceforge.net/DTD/sodipodi-0.dtd"
   xmlns:inkscape="http://www.inkscape.org/namespaces/inkscape"
   width="16"
   height="16"
   viewBox="0 0 16 16"
   fill="none"
   version="1.1"
   id="svg905"
   sodipodi:docname="rxjs-operator-log-point-disabled.svg"
   inkscape:version="1.0.2 (e86c8708, 2021-01-15)">
  <metadata
     id="metadata911">
    <rdf:RDF>
      <cc:Work
         rdf:about="">
        <dc:format>image/svg+xml</dc:format>
        <dc:type
           rdf:resource="http://purl.org/dc/dcmitype/StillImage" />
        <dc:title></dc:title>
      </cc:Work>
    </rdf:RDF>
  </metadata>
  <defs
     id="defs909" />
  <sodipodi:namedview
     pagecolor="#ffffff"
     bordercolor="#666666"
     borderopacity="1"
     objecttolerance="10"
     gridtolerance="10"
     guidetolerance="10"
     inkscape:pageopacity="0"
     inkscape:pageshadow="2"
     inkscape:window-width="2115"
     inkscape:window-height="1250"
     id="namedview907"
     showgrid="false"
     inkscape:snap-page="false"
     inkscape:zoom="31.157005"
     inkscape:cx="8.00027"
     inkscape:cy="7.4201812"
     inkscape:window-x="86"
     inkscape:window-y="240"
     inkscape:window-maximized="0"
     inkscape:current-layer="svg905" />
  <path
     style="fill:none;fill-opacity:1;stroke:#848484;stroke-width:1.2;stroke-miterlimit:4;stroke-dasharray:none;stroke-opacity:1"
     d="M 8.0253906,1.8378906 C 6.8241891,1.844611 6.3517906,2.3556732 5.4863281,2.390625 4.6185774,2.4256807 3.0535413,2.0269512 2.9042969,2.0429688 2.7550469,2.0589015 2.604874,2.1375967 2.640625,2.3984375 c 0,0 0.5629279,1.2898123 0.6347656,1.9785156 0.079779,0.7649167 -0.024407,1.6857103 -0.234375,2.2949219 -0.2494424,0.9403369 -0.2799003,1.3543968 -0.2851562,2.0410156 -0.00615,0.7947978 0.012967,1.6213834 0.2929687,2.3652344 0.4224267,1.12202 0.9826959,2.394259 2.0214844,2.974609 l 0.4277344,-1.121093 c 0.1612094,0.06908 0.4365685,0.215099 0.671875,0.271484 0.6031586,0.144528 1.8554687,0.160156 1.8554687,0.160156 0,0 1.2503552,-0.01565 1.8535156,-0.160156 0.2353048,-0.05638 0.5106678,-0.202394 0.6718748,-0.271484 l 0.427735,1.121093 C 12.017305,13.472384 12.577574,12.200145 13,11.078125 13.280051,10.334274 13.299053,9.5076884 13.292969,8.7128906 13.287669,8.0262718 13.259193,7.6122119 13.009766,6.671875 12.799799,6.0626634 12.695604,5.1418698 12.775391,4.3769531 12.847225,3.6882474 13.408203,2.3984375 13.408203,2.3984375 13.443942,2.1375994 13.295731,2.0589865 13.146484,2.0429688 12.997233,2.0270355 11.432206,2.4256722 10.564453,2.390625 9.6989928,2.3556671 9.2265899,1.8447014 8.0253906,1.8378906 Z"
     id="use27" />
</svg>
