<?xml version="1.0" encoding="UTF-8" standalone="no"?>
<svg
   xmlns:dc="http://purl.org/dc/elements/1.1/"
   xmlns:cc="http://creativecommons.org/ns#"
   xmlns:rdf="http://www.w3.org/1999/02/22-rdf-syntax-ns#"
   xmlns:svg="http://www.w3.org/2000/svg"
   xmlns="http://www.w3.org/2000/svg"
   xmlns:sodipodi="http://sodipodi.sourceforge.net/DTD/sodipodi-0.dtd"
   xmlns:inkscape="http://www.inkscape.org/namespaces/inkscape"
   width="16"
   height="16"
   viewBox="0 0 16 16"
   fill="none"
   version="1.1"
   id="svg905"
   sodipodi:docname="rxjs-operator-log-point-enabled.svg"
   inkscape:version="1.0.2 (e86c8708, 2021-01-15)">
  <metadata
     id="metadata911">
    <rdf:RDF>
      <cc:Work
         rdf:about="">
        <dc:format>image/svg+xml</dc:format>
        <dc:type
           rdf:resource="http://purl.org/dc/dcmitype/StillImage" />
        <dc:title></dc:title>
      </cc:Work>
    </rdf:RDF>
  </metadata>
  <defs
     id="defs909" />
  <sodipodi:namedview
     pagecolor="#ffffff"
     bordercolor="#666666"
     borderopacity="1"
     objecttolerance="10"
     gridtolerance="10"
     guidetolerance="10"
     inkscape:pageopacity="0"
     inkscape:pageshadow="2"
     inkscape:window-width="2115"
     inkscape:window-height="1250"
     id="namedview907"
     showgrid="false"
     inkscape:snap-page="false"
     inkscape:zoom="31.157005"
     inkscape:cx="8.00027"
     inkscape:cy="7.4201812"
     inkscape:window-x="86"
     inkscape:window-y="240"
     inkscape:window-maximized="0"
     inkscape:current-layer="svg905" />
  <path
     id="use27"
     style="fill:#e51400;fill-opacity:1;stroke:none;stroke-width:1.22188;stroke-miterlimit:4;stroke-dasharray:none;stroke-opacity:1"
     d="M 8.0253906 1.8378906 C 6.8241891 1.844611 6.3517906 2.3556732 5.4863281 2.390625 C 4.6185774 2.4256807 3.0535413 2.0269512 2.9042969 2.0429688 C 2.7550469 2.0589015 2.604874 2.1375967 2.640625 2.3984375 C 2.640625 2.3984375 3.2035529 3.6882498 3.2753906 4.3769531 C 3.3551696 5.1418698 3.2509836 6.0626634 3.0410156 6.671875 C 2.7915732 7.6122119 2.7611153 8.0262718 2.7558594 8.7128906 C 2.7497094 9.5076884 2.7688264 10.334274 3.0488281 11.078125 C 3.4712548 12.200145 4.031524 13.472384 5.0703125 14.052734 L 5.4980469 12.931641 C 5.6592563 13.000721 5.9346154 13.14674 6.1699219 13.203125 C 6.7730805 13.347653 8.0253906 13.363281 8.0253906 13.363281 C 8.0253906 13.363281 9.2757458 13.347632 9.8789062 13.203125 C 10.114211 13.146745 10.389574 13.000731 10.550781 12.931641 L 10.978516 14.052734 C 12.017305 13.472384 12.577574 12.200145 13 11.078125 C 13.280051 10.334274 13.299053 9.5076884 13.292969 8.7128906 C 13.287669 8.0262718 13.259193 7.6122119 13.009766 6.671875 C 12.799799 6.0626634 12.695604 5.1418698 12.775391 4.3769531 C 12.847225 3.6882474 13.408203 2.3984375 13.408203 2.3984375 C 13.443942 2.1375994 13.295731 2.0589865 13.146484 2.0429688 C 12.997233 2.0270355 11.432206 2.4256722 10.564453 2.390625 C 9.6989928 2.3556671 9.2265899 1.8447014 8.0253906 1.8378906 z M 6.0917969 4.5703125 C 6.949373 4.5700061 7.6444173 5.2892543 7.6445312 6.1777344 C 7.6444173 7.0662145 6.949373 7.7874158 6.0917969 7.7871094 C 5.2342205 7.7874158 4.5372234 7.0662144 4.5371094 6.1777344 C 4.5372232 5.2892543 5.2342205 4.5700061 6.0917969 4.5703125 z M 9.9589844 4.5703125 C 10.816561 4.5700064 11.511605 5.2892544 11.511719 6.1777344 C 11.511605 7.0662143 10.816561 7.7874155 9.9589844 7.7871094 C 9.1023879 7.7859814 8.4083162 7.0652001 8.4082031 6.1777344 C 8.4083161 5.2902688 9.1023879 4.5714405 9.9589844 4.5703125 z M 8.0683594 7.3496094 A 1.0591519 1.4924413 0 0 1 8.0878906 7.3496094 A 1.0591519 1.4924413 0 0 1 9.1464844 8.8417969 A 1.0591519 1.4924413 0 0 1 8.0878906 10.333984 A 1.0591519 1.4924413 0 0 1 7.0292969 8.8417969 A 1.0591519 1.4924413 0 0 1 8.0683594 7.3496094 z " />
</svg>
