<svg height="59" viewBox="0 0 50 59" width="50" xmlns="http://www.w3.org/2000/svg" xmlns:xlink="http://www.w3.org/1999/xlink"><defs><linearGradient id="a"><stop offset="0" stop-color="#592d89"/><stop offset="1" stop-color="#a8228e" stop-opacity="0"/></linearGradient><radialGradient id="b" cx="50%" cy="102.977698%" gradientTransform="matrix(0 .885339 -1 0 1.529777 .587107)" r="35.401234%" xlink:href="#a"/><radialGradient id="c" cx="50%" cy="-13.729411%" gradientTransform="matrix(0 .885339 -1 0 .362706 -.579964)" r="63.115077%" xlink:href="#a"/><path id="d" d="m25.1362018 55.745879s5.745557-.0684443 8.5164035-.7300441c1.0809649-.2581053 2.3505658-.9303208 3.0911403-1.2465826l1.9660614 2.3918862c4.7720746-2.6565864 7.3437719-8.4830287 9.2843465-13.6191317 1.2865132-3.405008 1.3768421-7.1936952 1.3489035-10.8319192-.0241228-3.1430341-.1630219-5.0343083-1.3089298-9.3387429-.964557-2.788694-1.4439649-7.0051609-1.0774386-10.5066012.3300088-3.15258411 2.9083772-9.05669226 2.9083772-9.05669226.1642368-1.19398911-.5170965-1.55124766-1.2027149-1.62457024-.6856141-.07332258-7.8757588 1.74919835-11.8621053 1.58877691-3.9758289-.15999838-6.1458728-2.49890523-11.6640438-2.53008301-5.5181746.03117822-7.6882136 2.3700855-11.6640426 2.53008389-3.98634648.16042187-11.17649341-1.66209949-11.8621092-1.58877692-.68561579.07332258-1.36694868.43058113-1.20271184 1.62457156 0 0 2.57836666 5.90410815 2.90837544 9.05669227.36652675 3.5014411-.11288114 7.7179058-1.07743904 10.5066007-1.14590614 4.3044364-1.28478465 6.1957071-1.30892851 9.3387412-.02794737 3.638224.06238772 7.4269112 1.34890307 10.8319192 1.94057544 5.136103 4.51227106 10.9625453 9.28434608 13.6191317l1.9660631-2.3918862c.7405742.3162618 2.0101759.9884773 3.0911417 1.2465826 2.7708452.6615998 8.5164018.7300441 8.5164018.7300441z"/><linearGradient id="e"><stop offset="0" stop-color="#592d89" stop-opacity="0"/><stop offset="1" stop-color="#592d89"/></linearGradient><linearGradient id="f" x1="44.555793%" x2="42.714787%" xlink:href="#e" y1="3.441803%" y2="42.892544%"/><linearGradient id="g" x1="44.555795%" x2="42.714789%" xlink:href="#e" y1="3.441803%" y2="42.892544%"/></defs><g fill="none" fill-rule="evenodd"><use fill="#a8228e" xlink:href="#d"/><use fill="url(#b)" xlink:href="#d"/><use fill="url(#c)" xlink:href="#d"/><path d="m46.7938345 2.80805343s2.3145048 6.01840352 2.6445136 9.23201737c.3665267 3.5692241-.1128812 7.8673138-1.0774391 10.7099939-1.1459061 4.3877643-1.2847846 6.3156475-1.3089285 9.5195263-.0279474 3.708655 1.0998522 8.7543375 2.3863676 12.2252618" stroke="#592d89" transform="matrix(-1 0 0 1 96.355238 0)"/><path d="m.74171159 2.80805343s2.05635877 6.01840352 2.38636755 9.23201737c.36652675 3.5692241-.11288114 7.8673138-1.07743904 10.7099939-1.14590614 4.3877643-1.28478465 6.3156475-1.30892851 9.5195263-.02794737 3.708655 1.0998522 8.1490197 2.38636755 11.6199439" stroke="#592d89"/><g fill="#592d89"><ellipse cx="20.833333" cy="56.596297" rx="3.72807" ry="2.403704"/><ellipse cx="29.166667" cy="56.596297" rx="3.72807" ry="2.403704"/></g><g transform="translate(.877193 28.407407)"><path d="m.05215307 3.30268015c-.02794737 3.63822407.06238772 7.42691125 1.34890307 10.83191925 1.94057544 5.136103 4.51227105 10.9625453 9.28434606 13.6191317 0 0 1.6212346-1.4202611 1.9660632-2.3918862 1.5262767-4.3006018 1.7334837-8.1111015-.0882685-13.6845037-.7213298-2.20680979-1.3573004-3.40263927-3.34143023-5.76708831-3.97335746-4.47624259-8.92050307-8.4157753-9.1696136-2.60757274z" fill="url(#f)"/><path d="m48.465864 3.30268015c.0279386 3.63822407-.0623903 7.42691125-1.3489035 10.83191925-1.9405745 5.136103-4.5122719 10.9625453-9.2843465 13.6191317 0 0-1.6212368-1.4202611-1.9660614-2.3918862-1.5262763-4.3006018-1.7334868-8.1111015.0882676-13.6845037.7213289-2.20680979 1.3572982-3.40263927 3.3414298-5.76708831 3.9733553-4.47624259 8.9205044-8.41577705 9.169614-2.60757274z" fill="url(#g)"/></g><ellipse cx="36.070109" cy="21.711764" fill="#ed168f" rx="6.259485" ry="6.237229"/><ellipse cx="36.20889" cy="21.627942" fill="#592d89" rx="3.568781" ry="3.556092"/><ellipse cx="14.029402" cy="21.536221" fill="#ed168f" rx="6.259485" ry="6.237229"/><g fill="#592d89"><ellipse cx="14.168183" cy="21.452399" rx="3.568781" ry="3.556092"/><ellipse cx="24.892581" cy="30.359656" rx="5.155739" ry="6.759656"/><g transform="translate(0 .874074)"><path d="m23.5739053 17.6452484c-2.4464272-6.5258269-7.503761-9.93968407-9.1912097-10.65627185-2.4458574-1.0386513-2.7570482-1.12676452-5.79067192-2.42122496-2.45919912-1.04935083-3.82350482-2.66376783-6.98197368-4.25834379-.68561579.07332258-1.36694868.43058113-1.20271184 1.62457156 0 0 3.70755482 3.28564138 7.17624342 4.53502451 2.68578332.96738934 5.47726882 1.83295256 7.85441662 3.41008637 3.126022 2.07397936 4.9036281 3.01113666 8.1359071 7.76615816z"/><path d="m26.6985 17.6452463c2.4464254-6.525827 7.5037588-9.93968416 9.1912105-10.65627194 2.4458553-1.03865129 2.7570483-1.12676452 5.7906711-2.42122495 2.4591973-1.04935084 3.8235044-2.66376784 6.9819737-4.25834379.685614.07332257 1.3669473.43058112 1.2027105 1.62457155 0 0-3.7075526 3.28564139-7.1762412 4.53502451-2.6857851.96738935-5.477272 1.83295256-7.8544167 3.41008637-3.1260219 2.07397935-4.9036316 3.01113665-8.1359079 7.76615825z"/></g></g></g></svg>