<svg height="91" viewBox="0 0 259 91" width="259" xmlns="http://www.w3.org/2000/svg" xmlns:xlink="http://www.w3.org/1999/xlink"><defs><linearGradient id="a"><stop offset="0" stop-color="#592d89"/><stop offset="1" stop-color="#a8228e" stop-opacity="0"/></linearGradient><radialGradient id="b" cx="50%" cy="102.977698%" gradientTransform="matrix(0 .860577 -1 0 1.529777 .599488)" r="36.419874%" xlink:href="#a"/><radialGradient id="c" cx="50%" cy="-13.729411%" gradientTransform="matrix(0 .860577 -1 0 .362706 -.567583)" r="64.931159%" xlink:href="#a"/><path id="d" d="m37.7043026 86.0248784s8.6183356-.1056207 12.7746053-1.1265758c1.6214474-.3982982 3.5258487-1.4356349 4.6367105-1.9236779l2.9490921 3.691066c7.1581119-4.0995412 11.0156579-13.0906809 13.9265198-21.0165158 1.9297697-5.2544763 2.0652631-11.1010314 2.0233552-16.7153977-.0361842-4.8502082-.2445329-7.7687493-1.9633947-14.4111858-1.4468355-4.3034044-2.1659474-10.8100926-1.6161579-16.2133794.4950132-4.8649455 4.3625658-13.97593623 4.3625658-13.97593623.2463552-1.8425177-.7756448-2.39382524-1.8040724-2.50697379-1.028421-.11314856-11.8136381 2.69929504-17.7931579 2.4517389-5.9637434-.2469033-9.2188092-3.85621362-17.4960658-3.90432597-8.2772618.04811302-11.5323204 3.65742402-17.4960638 3.90432732-5.9795197.24755682-16.76474012-2.56488746-17.7931638-2.4517389-1.02842368.11314855-2.05042303.66445609-1.80406776 2.50697581 0 0 3.86755 9.11099066 4.36256315 13.97593626.54979014 5.4032881-.16932171 11.9099729-1.61615855 16.2133787-1.71885921 6.6424392-1.92717697 9.5609749-1.96339276 14.4111831-.04192105 5.6143663.09358158 11.4609214 2.0233546 16.7153977 2.91086316 7.9258349 6.76840662 16.9169746 13.92651912 21.0165158l2.9490947-3.691066c1.1108612.488043 3.0152638 1.5253797 4.6367125 1.9236779 4.1562678 1.0209551 12.7746026 1.1265758 12.7746026 1.1265758z"/><linearGradient id="e"><stop offset="0" stop-color="#592d89" stop-opacity="0"/><stop offset="1" stop-color="#592d89"/></linearGradient><linearGradient id="f" x1="44.820789%" x2="43.069393%" xlink:href="#e" y1="3.441803%" y2="42.892544%"/><linearGradient id="g" x1="44.820791%" x2="43.069395%" xlink:href="#e" y1="3.441803%" y2="42.892544%"/></defs><g fill="none" fill-rule="evenodd"><text fill="#000" font-family="HelveticaNeue-Medium, Helvetica Neue" font-size="16" font-weight="400"><tspan x="90" y="60">RxJS Debugger</tspan> <tspan x="206.176" y="60"/><tspan font-family="HelveticaNeue, Helvetica Neue" font-weight="normal" x="90" y="79">for Visual Studio Code</tspan></text><use fill="#a8228e" xlink:href="#d"/><use fill="url(#b)" xlink:href="#d"/><use fill="url(#c)" xlink:href="#d"/><path d="m70.1907518 4.33327914s3.4717571 9.28736686 3.9667703 14.24649106c.5497901 5.5078883-.1693217 12.1405335-1.6161586 16.5272473-1.7188592 6.7710276-1.927177 9.7460622-1.9633927 14.6901637-.0419211 5.7230526 1.6497782 13.5093542 3.5795513 18.8655498" stroke="#592d89" transform="matrix(-1 0 0 1 144.532858 0)"/><path d="m1.11256739 4.33327914s3.08453816 9.28736686 3.57955132 14.24649106c.54979013 5.5078883-.16932172 12.1405335-1.61615856 16.5272473-1.71885921 6.7710276-1.92717697 9.7460622-1.96339276 14.6901637-.04192105 5.7230526 1.64977829 12.5752511 3.57955132 17.9314468" stroke="#592d89"/><g fill="#592d89"><ellipse cx="31.430556" cy="87" rx="5.430556" ry="4"/><ellipse cx="43.569444" cy="87" rx="5.430556" ry="4"/></g><g transform="translate(1 44)"><path d="m.07820141 5.07734594c-.04190594 5.59319136.09354786 11.41769596 2.02262547 16.65235466 2.9098142 7.8959422 6.76596752 16.8531714 13.92150052 20.937251 0 0 2.4309756-2.1834258 2.948032-3.677145 2.2885901-6.6114919 2.5992886-12.4695297-.1323549-21.03775-1.0816049-3.3926194-2.035217-5.2310172-5.0103392-8.86598191-5.95788846-6.88151172-13.37593275-12.93791727-13.74946389-4.00872875z" fill="url(#f)"/><path d="m72.6725983 5.07734594c.0418928 5.59319136-.0935518 11.41769596-2.0226261 16.65235466-2.9098129 7.8959422-6.7659689 16.8531714-13.9215012 20.937251 0 0-2.4309789-2.1834258-2.9480294-3.677145-2.2885894-6.6114919-2.5992932-12.4695297.1323536-21.03775 1.0816035-3.3926194 2.0352137-5.2310172 5.0103386-8.86598191 5.9578851-6.88151172 13.3759347-12.93791996 13.7494645-4.00872875z" fill="url(#g)"/></g><ellipse cx="54.546067" cy="33.786306" fill="#ed168f" rx="9.307219" ry="9.514417"/><ellipse cx="54.752419" cy="33.658442" fill="#592d89" rx="5.306416" ry="5.424547"/><ellipse cx="21.773774" cy="33.51853" fill="#ed168f" rx="9.307219" ry="9.514417"/><g fill="#592d89"><ellipse cx="21.980127" cy="33.390666" rx="5.306416" ry="5.424547"/><ellipse cx="37.836723" cy="47.477652" rx="7.836723" ry="10.477652"/><g transform="translate(0 2)"><path d="m35.3608579 26.5882309c-3.6696408-9.8332531-11.2556415-14.9773248-13.7868145-16.0570943-3.6687862-1.56506155-4.1355723-1.6978324-8.6860079-3.64835258-3.68879866-1.58118387-5.73525721-4.01382131-10.4729605-6.41656185-1.02842368.110484-2.05042303.64880868-1.80406776 2.44793854 0 0 5.56133223 4.95087344 10.76436516 6.83347017 4.028675 1.45768262 8.2159033 2.76193142 11.781625 5.13838972 4.6890329 3.1251157 7.3554421 4.537244 12.2038605 11.7022103z"/><path d="m40.04775 26.5882276c3.6696382-9.8332531 11.2556382-14.9773247 13.7868158-16.0570943 3.6687829-1.56506154 4.1355724-1.6978324 8.6860066-3.64835257 3.688796-1.58118388 5.7352565-4.01382132 10.4729605-6.41656185 1.028421.110484 2.050421.64880868 1.8040658 2.44793853 0 0-5.561329 4.95087344-10.7643619 6.83347018-4.0286776 1.45768261-8.2159079 2.76193141-11.781625 5.13838971-4.6890329 3.1251157-7.3554473 4.537244-12.2038618 11.7022103z"/></g></g></g></svg>